<svg
  version="1.1"
  xmlns="http://www.w3.org/2000/svg"
  xmlns:xlink="http://www.w3.org/1999/xlink"
  viewBox="0 0 512 512"
  fill="#000000"
>
  <g id="SVGRepo_bgCarrier" stroke-width="0"></g>
  <g
    id="SVGRepo_tracerCarrier"
    stroke-linecap="round"
    stroke-linejoin="round"
  ></g>
  <g id="SVGRepo_iconCarrier">
    <title>nsy-removebg-preview</title>
    <defs>
      <linearGradient
        x1="0.35"
        y1="0.92"
        x2="0.67"
        y2="0.16"
        id="A"
      >
        <stop stop-color="#ff8605" offset="0%"></stop>
        <stop stop-color="#0077ff" offset="100%"></stop>
      </linearGradient>
    </defs>
    <g fill="url(#A)">
      <path
        d="M40.8 0v511.1h141.5v-0.2h-74.7v-41.2h73.5c92.4 0 167.7-75.2 167.7-167.6 0-92.3-75.3-167.5-167.7-167.5h-73.5v-94.6H143v93.4h-102V0H40.8zm98.2 211.3h73.5c53.9 0 97.8 43.9 97.8 97.8 0 54-43.9 97.9-97.8 97.9h-73.5v-195.7z"
      ></path>
      <path
        d="M227.9 342.8c12.6 7.4 28.7 3 36.1-9.6 7.4-12.6 3-28.7-9.6-36.1-12.6-7.4-28.7-3-36.1 9.6-7.4 12.6-3 28.7 9.6 36.1zm-33.5-47.5c17.7 10.4 40.3 4.2 50.7-13.5 10.4-17.7 4.2-40.3-13.5-50.7-17.7-10.4-40.3-4.2-50.7 13.5-10.4 17.7-4.2 40.3 13.5 50.7zm-30.2-68.6c22.8 13.4 52 5.3 65.4-17.5 13.4-22.8 5.3-52-17.5-65.4-22.8-13.4-52-5.3-65.4 17.5-13.4 22.8-5.3 52 17.5 65.4zm-18.4-45.3c13.7-23.2 5.4-52.9-17.8-66.5-23.2-13.7-52.9-5.4-66.5 17.8-13.7 23.2-5.4 52.9 17.8 66.5 23.2 13.7 52.9 5.4 66.5-17.8zm-22.1-12.9c-14.7-8.7-19.7-28-11.1-42.7 8.7-14.7 28-19.7 42.7-11.1 14.7 8.7 19.7 28 11.1 42.7-8.7 14.7-28 19.7-42.7 11.1zm-13.7-75.1c-5.5 9.3-2.2 21.4 7.1 26.9 9.3 5.5 21.4 2.2 26.9-7.1 5.5-9.3 2.2-21.4-7.1-26.9-9.3-5.5-21.4-2.2-26.9 7.1zm158.8 312.4c14.7 8.7 34 3.6 42.7-11.1 8.7-14.7 3.6-34-11.1-42.7-14.7-8.7-34-3.6-42.7 11.1-8.7 14.7-3.6 34 11.1 42.7zm-30.5-101.7c13.7 23.2 43.3 31.5 66.5 17.8 23.2-13.7 31.5-43.3 17.8-66.5-13.7-23.2-43.3-31.5-66.5-17.8-23.2 13.7-31.5 43.3-17.8 66.5zm65.4-100.3c10.4 17.7 33 23.9 50.7 13.5 17.7-10.4 23.9-33 13.5-50.7-10.4-17.7-33-23.9-50.7-13.5-17.7 10.4-23.9 33-13.5 50.7zm-38.4-14.7c12.6 7.4 28.7 3 36.1-9.6 7.4-12.6 3-28.7-9.6-36.1-12.6-7.4-28.7-3-36.1 9.6-7.4 12.6-3 28.7 9.6 36.1z"
      ></path>
    </g>
  </g>
</svg>
